<svg width="155" height="30" viewBox="0 0 155 30" fill="none" xmlns="http://www.w3.org/2000/svg">
<circle cx="15" cy="15" r="15" fill="white"/>
<rect x="6.42627" y="16.4565" width="14.174" height="2.36234" rx="1.18117" transform="rotate(-45 6.42627 16.4565)" fill="#F4ABC4"/>
<rect x="11.9226" y="21.9355" width="10.8667" height="2.36234" rx="1.18117" transform="rotate(-45 11.9226 21.9355)" fill="#F4ABC4"/>
<rect x="20.2744" y="13.5835" width="2.36234" height="2.36234" rx="1.18117" transform="rotate(-45 20.2744 13.5835)" fill="#F4ABC4"/>
<rect x="9.18286" y="19.1963" width="4.2522" height="2.36234" rx="1.18117" transform="rotate(-45 9.18286 19.1963)" fill="#F4ABC4"/>
<rect x="12.8579" y="15.5215" width="8.97688" height="2.36234" rx="1.18117" transform="rotate(-45 12.8579 15.5215)" fill="#F4ABC4"/>
<path d="M41.9847 23V7.472H50.9367C53.0167 7.472 54.5927 7.824 55.6647 8.528C56.7527 9.216 57.2967 10.248 57.2967 11.624C57.2967 12.504 57.0807 13.2 56.6487 13.712C56.2167 14.208 55.6007 14.576 54.8007 14.816C54.0167 15.056 53.0887 15.208 52.0167 15.272L52.1127 15.104C52.8967 15.12 53.6327 15.176 54.3207 15.272C55.0247 15.368 55.6407 15.544 56.1687 15.8C56.6967 16.056 57.1127 16.416 57.4167 16.88C57.7207 17.328 57.8727 17.92 57.8727 18.656C57.8727 19.616 57.6167 20.416 57.1047 21.056C56.5927 21.68 55.8807 22.152 54.9687 22.472C54.0567 22.792 53.0007 22.968 51.8007 23H41.9847ZM45.1767 20.36H51.4647C52.4727 20.36 53.2487 20.2 53.7927 19.88C54.3367 19.544 54.6087 19.016 54.6087 18.296C54.6087 17.768 54.4487 17.384 54.1287 17.144C53.8087 16.904 53.3847 16.76 52.8567 16.712C52.3287 16.648 51.7607 16.616 51.1527 16.616H45.1767V20.36ZM45.1767 14.048H50.8167C51.8247 14.048 52.6007 13.904 53.1447 13.616C53.6887 13.312 53.9607 12.8 53.9607 12.08C53.9607 11.36 53.6887 10.856 53.1447 10.568C52.6007 10.264 51.8807 10.112 50.9847 10.112H45.1767V14.048ZM75.8392 7.472L69.0232 18.104V23H65.8072V18.104L58.9912 7.472H62.6872L68.4232 16.76H66.5032L72.1432 7.472H75.8392ZM80.9088 17.96V15.416H88.0128C88.8608 15.416 89.5328 15.192 90.0288 14.744C90.5248 14.28 90.7728 13.64 90.7728 12.824C90.7728 11.976 90.5248 11.328 90.0288 10.88C89.5328 10.432 88.8608 10.208 88.0128 10.208H81.2928V23H78.1008V7.472H87.7248C88.5888 7.472 89.3968 7.576 90.1488 7.784C90.9168 7.992 91.5808 8.312 92.1408 8.744C92.7168 9.176 93.1648 9.728 93.4848 10.4C93.8048 11.072 93.9648 11.88 93.9648 12.824C93.9648 13.752 93.8048 14.544 93.4848 15.2C93.1648 15.856 92.7168 16.392 92.1408 16.808C91.5808 17.208 90.9168 17.504 90.1488 17.696C89.3968 17.872 88.5888 17.96 87.7248 17.96H80.9088ZM99.7771 13.88H112.089V16.544H99.7771V13.88ZM111.561 7.472H114.753V23H111.561V7.472ZM96.9691 7.472H100.161V23H96.9691V7.472ZM121.63 16.52V20.336H133.606V23H118.438V7.472H133.582V10.136H121.63V14H131.422V16.52H121.63ZM136.883 23V7.472H147.419C148.619 7.472 149.659 7.64 150.539 7.976C151.435 8.296 152.131 8.808 152.627 9.512C153.123 10.2 153.371 11.088 153.371 12.176C153.371 12.912 153.243 13.536 152.987 14.048C152.731 14.56 152.371 14.976 151.907 15.296C151.459 15.616 150.939 15.864 150.347 16.04C149.755 16.2 149.123 16.304 148.451 16.352L148.115 16.16C149.235 16.176 150.155 16.272 150.875 16.448C151.595 16.608 152.131 16.912 152.483 17.36C152.851 17.792 153.035 18.44 153.035 19.304V23H149.843V19.52C149.843 18.928 149.739 18.472 149.531 18.152C149.323 17.816 148.947 17.584 148.403 17.456C147.875 17.328 147.107 17.264 146.099 17.264H140.075V23H136.883ZM140.075 14.768H147.419C148.315 14.768 148.995 14.552 149.459 14.12C149.939 13.688 150.179 13.104 150.179 12.368C150.179 11.664 149.939 11.128 149.459 10.76C148.995 10.392 148.315 10.208 147.419 10.208H140.075V14.768Z" fill="white"/>
</svg>
